# xmcd
#
# Track frame offsets: 
#        150
#        12101
#        24680
#        36544
#        49760
#        61697
#        74005
#        87328
#        99181
#        109100
#        119263
#        131468
#        140759
#        152262
#        163993
#        175111
#        188888
#        202246
#        208961
#        220083
#
# Disc length: 3097 seconds
#
# Revision: 0
# Processed by: cddbd v1.5.2PL0 Copyright (c) Steve Scherf et al.
# Submitted via: ExactAudioCopy v1.0b1
#
DISCID=260c1714
DTITLE=Various Artist - Dirty Rhythm And Blues [CD1]
DYEAR=2019
DGENRE=R&B
TTITLE0=Bull Moose Jackson - Nosey Joe (1952)
TTITLE1=Blenders - Don't Fuck Around With Love (1953)
TTITLE2=Todd Rhodes - Rocket 69 (1951)
TTITLE3=Dorothy Ellis - Drill Daddy Drill (1952)
TTITLE4=Four Jacks - Last Of The Good Rockin' Men (1952)
TTITLE5=Wynonie Harris - I Like My Baby's Pudding (1950)
TTITLE6=Dinah Washington - Big Long Slidin' Thing (1954)
TTITLE7=Lucky Millinder - Silent George (1950)
TTITLE8=Julia Lee - My Man Stands Out (1950)
TTITLE9=Bull Moose Jackson - Big Ten Inch Record (1952)
TTITLE10=Hank Ballard - Work With Me Annie (1954)
TTITLE11=Roosevelt Sykes - Set The Meat Outdoors (1960)
TTITLE12=Annisteen Allen - My Baby Keeps Rollin' (1953)
TTITLE13=Savanah Churchill - Fat Meat Is Good Meat (1944)
TTITLE14=Wynonie Harris - Wasn't That Good (1953)
TTITLE15=Dinah Washington - Salty Papa Blues (1944)
TTITLE16=Julia Lee - I Didn't Like It The First Time (1947)
TTITLE17=Lightnin' Hopkins - Let Me Play With Your Poodle (1947)
TTITLE18=Roy Brown - Butcher Pete (Part 1) (1949)
TTITLE19=Roy Brown - Butcher Pete (Part 2) (1949)
EXTD=
EXTT0=
EXTT1=
EXTT2=
EXTT3=
EXTT4=
EXTT5=
EXTT6=
EXTT7=
EXTT8=
EXTT9=
EXTT10=
EXTT11=
EXTT12=
EXTT13=
EXTT14=
EXTT15=
EXTT16=
EXTT17=
EXTT18=
EXTT19=
PLAYORDER=
